<svg xmlns="http://www.w3.org/2000/svg">

<!-- Перышко. Символизирует легкость -->
<symbol id="feather" viewBox="0 0 512 512">
<path d="M278.5 215.6L23 471c-9.4 9.4-9.4 24.6 0 33.9s24.6 9.4 33.9 0l57-57 68 0c49.7 0 97.9-14.4 139-41c11.1-7.2 5.5-23-7.8-23c-5.1 0-9.2-4.1-9.2-9.2c0-4.1 2.7-7.6 6.5-8.8l81-24.3c2.5-.8 4.8-2.1 6.7-4l22.4-22.4c10.1-10.1 2.9-27.3-11.3-27.3l-32.2 0c-5.1 0-9.2-4.1-9.2-9.2c0-4.1 2.7-7.6 6.5-8.8l112-33.6c4-1.2 7.4-3.9 9.3-7.7C506.4 207.6 512 184.1 512 160c0-41-16.3-80.3-45.3-109.3l-5.5-5.5C432.3 16.3 393 0 352 0s-80.3 16.3-109.3 45.3L139 149C91 197 64 262.1 64 330l0 55.3L253.6 195.8c6.2-6.2 16.4-6.2 22.6 0c5.4 5.4 6.1 13.6 2.2 19.8z"/>
</symbol>

<!-- Галочка отметки выбора -->
<symbol id="check" viewBox="0 0 448 512">
<path d="M438.6 105.4c12.5 12.5 12.5 32.8 0 45.3l-256 256c-12.5 12.5-32.8 12.5-45.3 0l-128-128c-12.5-12.5-12.5-32.8 0-45.3s32.8-12.5 45.3 0L160 338.7 393.4 105.4c12.5-12.5 32.8-12.5 45.3 0z"/>
</symbol>

<!-- Галочка отметки выбора в круге -->
<symbol id="check2" viewBox="0 0 512 512">
<path d="M256 48a208 208 0 1 1 0 416 208 208 0 1 1 0-416zm0 464A256 256 0 1 0 256 0a256 256 0 1 0 0 512zM369 209c9.4-9.4 9.4-24.6 0-33.9s-24.6-9.4-33.9 0l-111 111-47-47c-9.4-9.4-24.6-9.4-33.9 0s-9.4 24.6 0 33.9l64 64c9.4 9.4 24.6 9.4 33.9 0L369 209z"/>
</symbol>

<!-- Человек с плюсом -->
<symbol id="users-plus" viewBox="0 0 640 512">
<path d="M96 128a128 128 0 1 1 256 0A128 128 0 1 1 96 128zM0 482.3C0 383.8 79.8 304 178.3 304l91.4 0C368.2 304 448 383.8 448 482.3c0 16.4-13.3 29.7-29.7 29.7L29.7 512C13.3 512 0 498.7 0 482.3zM504 312l0-64-64 0c-13.3 0-24-10.7-24-24s10.7-24 24-24l64 0 0-64c0-13.3 10.7-24 24-24s24 10.7 24 24l0 64 64 0c13.3 0 24 10.7 24 24s-10.7 24-24 24l-64 0 0 64c0 13.3-10.7 24-24 24s-24-10.7-24-24z"/>
</symbol>

<!-- Группа людей, символизирующая универсальность.-->
<symbol id="users" viewBox="0 0 640 512">
<path d="M144 0a80 80 0 1 1 0 160A80 80 0 1 1 144 0zM512 0a80 80 0 1 1 0 160A80 80 0 1 1 512 0zM0 298.7C0 239.8 47.8 192 106.7 192l42.7 0c15.9 0 31 3.5 44.6 9.7c-1.3 7.2-1.9 14.7-1.9 22.3c0 38.2 16.8 72.5 43.3 96c-.2 0-.4 0-.7 0L21.3 320C9.6 320 0 310.4 0 298.7zM405.3 320c-.2 0-.4 0-.7 0c26.6-23.5 43.3-57.8 43.3-96c0-7.6-.7-15-1.9-22.3c13.6-6.3 28.7-9.7 44.6-9.7l42.7 0C592.2 192 640 239.8 640 298.7c0 11.8-9.6 21.3-21.3 21.3l-213.3 0zM224 224a96 96 0 1 1 192 0 96 96 0 1 1 -192 0zM128 485.3C128 411.7 187.7 352 261.3 352l117.3 0C452.3 352 512 411.7 512 485.3c0 14.7-11.9 26.7-26.7 26.7l-330.7 0c-14.7 0-26.7-11.9-26.7-26.7z"/>
</symbol>

<!-- Один человек -->
<symbol id="user" viewBox="0 0 448 512">
<path d="M224 256A128 128 0 1 0 224 0a128 128 0 1 0 0 256zm-45.7 48C79.8 304 0 383.8 0 482.3C0 498.7 13.3 512 29.7 512l388.6 0c16.4 0 29.7-13.3 29.7-29.7C448 383.8 368.2 304 269.7 304l-91.4 0z"/>
</symbol>

<!-- Выпускник. Эта иконка часто используется для обозначения образования, обучения, дипломов или академических достижений. Подходит для контекстов, связанных с учебными учреждениями, образовательными программами или развитием учеников. -->
<symbol id="user-graduate" viewBox="0 0 448 512">
<path d="M219.3 .5c3.1-.6 6.3-.6 9.4 0l200 40C439.9 42.7 448 52.6 448 64s-8.1 21.3-19.3 23.5L352 102.9l0 57.1c0 70.7-57.3 128-128 128s-128-57.3-128-128l0-57.1L48 93.3l0 65.1 15.7 78.4c.9 4.7-.3 9.6-3.3 13.3s-7.6 5.9-12.4 5.9l-32 0c-4.8 0-9.3-2.1-12.4-5.9s-4.3-8.6-3.3-13.3L16 158.4l0-71.8C6.5 83.3 0 74.3 0 64C0 52.6 8.1 42.7 19.3 40.5l200-40zM111.9 327.7c10.5-3.4 21.8 .4 29.4 8.5l71 75.5c6.3 6.7 17 6.7 23.3 0l71-75.5c7.6-8.1 18.9-11.9 29.4-8.5C401 348.6 448 409.4 448 481.3c0 17-13.8 30.7-30.7 30.7L30.7 512C13.8 512 0 498.2 0 481.3c0-71.9 47-132.7 111.9-153.6z"/>
</symbol>

<!-- Ребенок. Используется для обозначения темы детства, детей, юности, образовательных программ для младших возрастных групп, а также для разделов, ориентированных на детей и их потребности. -->
<symbol id="child" viewBox="0 0 320 512">
<path d="M96 64a64 64 0 1 1 128 0A64 64 0 1 1 96 64zm48 320l0 96c0 17.7-14.3 32-32 32s-32-14.3-32-32l0-192.2L59.1 321c-9.4 15-29.2 19.4-44.1 10S-4.5 301.9 4.9 287l39.9-63.3C69.7 184 113.2 160 160 160s90.3 24 115.2 63.6L315.1 287c9.4 15 4.9 34.7-10 44.1s-34.7 4.9-44.1-10L240 287.8 240 480c0 17.7-14.3 32-32 32s-32-14.3-32-32l0-96-32 0z"/>
</symbol>

<!-- Изображение учителя у доски, символизирует педагогическое внимание. Большая доска -->
<symbol id="chalkboard-user" viewBox="0 0 640 512">
<path d="M160 64c0-35.3 28.7-64 64-64L576 0c35.3 0 64 28.7 64 64l0 288c0 35.3-28.7 64-64 64l-239.2 0c-11.8-25.5-29.9-47.5-52.4-64l99.6 0 0-32c0-17.7 14.3-32 32-32l64 0c17.7 0 32 14.3 32 32l0 32 64 0 0-288L224 64l0 49.1C205.2 102.2 183.3 96 160 96l0-32zm0 64a96 96 0 1 1 0 192 96 96 0 1 1 0-192zM133.3 352l53.3 0C260.3 352 320 411.7 320 485.3c0 14.7-11.9 26.7-26.7 26.7L26.7 512C11.9 512 0 500.1 0 485.3C0 411.7 59.7 352 133.3 352z"/>
</symbol>

<!-- Выпускник. Символ получения высшего образования -->
<symbol id="user-graduate" viewBox="0 0 448 512">
<path d="M219.3 .5c3.1-.6 6.3-.6 9.4 0l200 40C439.9 42.7 448 52.6 448 64s-8.1 21.3-19.3 23.5L352 102.9l0 57.1c0 70.7-57.3 128-128 128s-128-57.3-128-128l0-57.1L48 93.3l0 65.1 15.7 78.4c.9 4.7-.3 9.6-3.3 13.3s-7.6 5.9-12.4 5.9l-32 0c-4.8 0-9.3-2.1-12.4-5.9s-4.3-8.6-3.3-13.3L16 158.4l0-71.8C6.5 83.3 0 74.3 0 64C0 52.6 8.1 42.7 19.3 40.5l200-40zM111.9 327.7c10.5-3.4 21.8 .4 29.4 8.5l71 75.5c6.3 6.7 17 6.7 23.3 0l71-75.5c7.6-8.1 18.9-11.9 29.4-8.5C401 348.6 448 409.4 448 481.3c0 17-13.8 30.7-30.7 30.7L30.7 512C13.8 512 0 498.2 0 481.3c0-71.9 47-132.7 111.9-153.6z"/>
</symbol>

<!-- Изображение учителя у доски, символизирует педагогическое внимание. Маленькая доска -->
<symbol id="chalkboard-user" viewBox="0 0 640 512">
<path d="M192 96a48 48 0 1 0 0-96 48 48 0 1 0 0 96zm-8 384l0-128 16 0 0 128c0 17.7 14.3 32 32 32s32-14.3 32-32l0-288 56 0 64 0 16 0c17.7 0 32-14.3 32-32s-14.3-32-32-32l-16 0 0-64 192 0 0 192-192 0 0-32-64 0 0 48c0 26.5 21.5 48 48 48l224 0c26.5 0 48-21.5 48-48l0-224c0-26.5-21.5-48-48-48L368 0c-26.5 0-48 21.5-48 48l0 80-76.9 0-65.9 0c-33.7 0-64.9 17.7-82.3 46.6l-58.3 97c-9.1 15.1-4.2 34.8 10.9 43.9s34.8 4.2 43.9-10.9L120 256.9 120 480c0 17.7 14.3 32 32 32s32-14.3 32-32z"/>
</symbol>

<!-- Изображение кубка -->
<symbol id="trophy" viewBox="0 0 576 512">
<path d="M400 0L176 0c-26.5 0-48.1 21.8-47.1 48.2c.2 5.3 .4 10.6 .7 15.8L24 64C10.7 64 0 74.7 0 88c0 92.6 33.5 157 78.5 200.7c44.3 43.1 98.3 64.8 138.1 75.8c23.4 6.5 39.4 26 39.4 45.6c0 20.9-17 37.9-37.9 37.9L192 448c-17.7 0-32 14.3-32 32s14.3 32 32 32l192 0c17.7 0 32-14.3 32-32s-14.3-32-32-32l-26.1 0C337 448 320 431 320 410.1c0-19.6 15.9-39.2 39.4-45.6c39.9-11 93.9-32.7 138.2-75.8C542.5 245 576 180.6 576 88c0-13.3-10.7-24-24-24L446.4 64c.3-5.2 .5-10.4 .7-15.8C448.1 21.8 426.5 0 400 0zM48.9 112l84.4 0c9.1 90.1 29.2 150.3 51.9 190.6c-24.9-11-50.8-26.5-73.2-48.3c-32-31.1-58-76-63-142.3zM464.1 254.3c-22.4 21.8-48.3 37.3-73.2 48.3c22.7-40.3 42.8-100.5 51.9-190.6l84.4 0c-5.1 66.3-31.1 111.2-63 142.3z"/>
</symbol>

<!-- Изображение награды -->
<symbol id="award" viewBox="0 0 384 512">
<path d="M173.8 5.5c11-7.3 25.4-7.3 36.4 0L228 17.2c6 3.9 13 5.8 20.1 5.4l21.3-1.3c13.2-.8 25.6 6.4 31.5 18.2l9.6 19.1c3.2 6.4 8.4 11.5 14.7 14.7L344.5 83c11.8 5.9 19 18.3 18.2 31.5l-1.3 21.3c-.4 7.1 1.5 14.2 5.4 20.1l11.8 17.8c7.3 11 7.3 25.4 0 36.4L366.8 228c-3.9 6-5.8 13-5.4 20.1l1.3 21.3c.8 13.2-6.4 25.6-18.2 31.5l-19.1 9.6c-6.4 3.2-11.5 8.4-14.7 14.7L301 344.5c-5.9 11.8-18.3 19-31.5 18.2l-21.3-1.3c-7.1-.4-14.2 1.5-20.1 5.4l-17.8 11.8c-11 7.3-25.4 7.3-36.4 0L156 366.8c-6-3.9-13-5.8-20.1-5.4l-21.3 1.3c-13.2 .8-25.6-6.4-31.5-18.2l-9.6-19.1c-3.2-6.4-8.4-11.5-14.7-14.7L39.5 301c-11.8-5.9-19-18.3-18.2-31.5l1.3-21.3c.4-7.1-1.5-14.2-5.4-20.1L5.5 210.2c-7.3-11-7.3-25.4 0-36.4L17.2 156c3.9-6 5.8-13 5.4-20.1l-1.3-21.3c-.8-13.2 6.4-25.6 18.2-31.5l19.1-9.6C65 70.2 70.2 65 73.4 58.6L83 39.5c5.9-11.8 18.3-19 31.5-18.2l21.3 1.3c7.1 .4 14.2-1.5 20.1-5.4L173.8 5.5zM272 192a80 80 0 1 0 -160 0 80 80 0 1 0 160 0zM1.3 441.8L44.4 339.3c.2 .1 .3 .2 .4 .4l9.6 19.1c11.7 23.2 36 37.3 62 35.8l21.3-1.3c.2 0 .5 0 .7 .2l17.8 11.8c5.1 3.3 10.5 5.9 16.1 7.7l-37.6 89.3c-2.3 5.5-7.4 9.2-13.3 9.7s-11.6-2.2-14.8-7.2L74.4 455.5l-56.1 8.3c-5.7 .8-11.4-1.5-15-6s-4.3-10.7-2.1-16zm248 60.4L211.7 413c5.6-1.8 11-4.3 16.1-7.7l17.8-11.8c.2-.1 .4-.2 .7-.2l21.3 1.3c26 1.5 50.3-12.6 62-35.8l9.6-19.1c.1-.2 .2-.3 .4-.4l43.2 102.5c2.2 5.3 1.4 11.4-2.1 16s-9.3 6.9-15 6l-56.1-8.3-32.2 49.2c-3.2 5-8.9 7.7-14.8 7.2s-11-4.3-13.3-9.7z"/>
</symbol>

<!-- Изображение медали -->
<symbol id="medal" viewBox="0 0 512 512">
<path d="M4.1 38.2C1.4 34.2 0 29.4 0 24.6C0 11 11 0 24.6 0L133.9 0c11.2 0 21.7 5.9 27.4 15.5l68.5 114.1c-48.2 6.1-91.3 28.6-123.4 61.9L4.1 38.2zm503.7 0L405.6 191.5c-32.1-33.3-75.2-55.8-123.4-61.9L350.7 15.5C356.5 5.9 366.9 0 378.1 0L487.4 0C501 0 512 11 512 24.6c0 4.8-1.4 9.6-4.1 13.6zM80 336a176 176 0 1 1 352 0A176 176 0 1 1 80 336zm184.4-94.9c-3.4-7-13.3-7-16.8 0l-22.4 45.4c-1.4 2.8-4 4.7-7 5.1L168 298.9c-7.7 1.1-10.7 10.5-5.2 16l36.3 35.4c2.2 2.2 3.2 5.2 2.7 8.3l-8.6 49.9c-1.3 7.6 6.7 13.5 13.6 9.9l44.8-23.6c2.7-1.4 6-1.4 8.7 0l44.8 23.6c6.9 3.6 14.9-2.2 13.6-9.9l-8.6-49.9c-.5-3 .5-6.1 2.7-8.3l36.3-35.4c5.6-5.4 2.5-14.8-5.2-16l-50.1-7.3c-3-.4-5.7-2.4-7-5.1l-22.4-45.4z"/>
</symbol>

<!-- Стрелка вверх -->
<symbol id="arrow-up" viewBox="0 0 384 512">
<path d="M214.6 41.4c-12.5-12.5-32.8-12.5-45.3 0l-160 160c-12.5 12.5-12.5 32.8 0 45.3s32.8 12.5 45.3 0L160 141.2 160 448c0 17.7 14.3 32 32 32s32-14.3 32-32l0-306.7L329.4 246.6c12.5 12.5 32.8 12.5 45.3 0s12.5-32.8 0-45.3l-160-160z"/>
</symbol>

<!-- Театральные маски, символизируют искусство и классику -->
<symbol id="masks-theater" viewBox="0 0 640 512">
<path d="M74.6 373.2c41.7 36.1 108 82.5 166.1 73.7c6.1-.9 12.1-2.5 18-4.5c-9.2-12.3-17.3-24.4-24.2-35.4c-21.9-35-28.8-75.2-25.9-113.6c-20.6 4.1-39.2 13-54.7 25.4c-6.5 5.2-16.3 1.3-14.8-7c6.4-33.5 33-60.9 68.2-66.3c2.6-.4 5.3-.7 7.9-.8l19.4-131.3c2-13.8 8-32.7 25-45.9C278.2 53.2 310.5 37 363.2 32.2c-.8-.7-1.6-1.4-2.4-2.1C340.6 14.5 288.4-11.5 175.7 5.6S20.5 63 5.7 83.9C0 91.9-.8 102 .6 111.8L24.8 276.1c5.5 37.3 21.5 72.6 49.8 97.2zm87.7-219.6c4.4-3.1 10.8-2 11.8 3.3c.1 .5 .2 1.1 .3 1.6c3.2 21.8-11.6 42-33.1 45.3s-41.5-11.8-44.7-33.5c-.1-.5-.1-1.1-.2-1.6c-.6-5.4 5.2-8.4 10.3-6.7c9 3 18.8 3.9 28.7 2.4s19.1-5.3 26.8-10.8zM261.6 390c29.4 46.9 79.5 110.9 137.6 119.7s124.5-37.5 166.1-73.7c28.3-24.5 44.3-59.8 49.8-97.2l24.2-164.3c1.4-9.8 .6-19.9-5.1-27.9c-14.8-20.9-57.3-61.2-170-78.3S299.4 77.2 279.2 92.8c-7.8 6-11.5 15.4-12.9 25.2L242.1 282.3c-5.5 37.3-.4 75.8 19.6 107.7zM404.5 235.3c-7.7-5.5-16.8-9.3-26.8-10.8s-19.8-.6-28.7 2.4c-5.1 1.7-10.9-1.3-10.3-6.7c.1-.5 .1-1.1 .2-1.6c3.2-21.8 23.2-36.8 44.7-33.5s36.3 23.5 33.1 45.3c-.1 .5-.2 1.1-.3 1.6c-1 5.3-7.4 6.4-11.8 3.3zm136.2 15.5c-1 5.3-7.4 6.4-11.8 3.3c-7.7-5.5-16.8-9.3-26.8-10.8s-19.8-.6-28.7 2.4c-5.1 1.7-10.9-1.3-10.3-6.7c.1-.5 .1-1.1 .2-1.6c3.2-21.8 23.2-36.8 44.7-33.5s36.3 23.5 33.1 45.3c-.1 .5-.2 1.1-.3 1.6zM530 350.2c-19.6 44.7-66.8 72.5-116.8 64.9s-87.1-48.2-93-96.7c-1-8.3 8.9-12.1 15.2-6.7c23.9 20.8 53.6 35.3 87 40.3s66.1 .1 94.9-12.8c7.6-3.4 16 3.2 12.6 10.9z"/>
</symbol>

<!-- Нота, символизирует музыку -->
<symbol id="music" viewBox="0 0 512 512">
<path d="M499.1 6.3c8.1 6 12.9 15.6 12.9 25.7l0 72 0 264c0 44.2-43 80-96 80s-96-35.8-96-80s43-80 96-80c11.2 0 22 1.6 32 4.6L448 147 192 223.8 192 432c0 44.2-43 80-96 80s-96-35.8-96-80s43-80 96-80c11.2 0 22 1.6 32 4.6L128 200l0-72c0-14.1 9.3-26.6 22.8-30.7l320-96c9.7-2.9 20.2-1.1 28.3 5z"/>
</symbol>

<!-- Календарь, символизирует ежегодные мероприятия -->
<symbol id="calendar" viewBox="0 0 448 512">
<path d="M128 0c17.7 0 32 14.3 32 32l0 32 128 0 0-32c0-17.7 14.3-32 32-32s32 14.3 32 32l0 32 48 0c26.5 0 48 21.5 48 48l0 48L0 160l0-48C0 85.5 21.5 64 48 64l48 0 0-32c0-17.7 14.3-32 32-32zM0 192l448 0 0 272c0 26.5-21.5 48-48 48L48 512c-26.5 0-48-21.5-48-48L0 192zM329 305c9.4-9.4 9.4-24.6 0-33.9s-24.6-9.4-33.9 0l-95 95-47-47c-9.4-9.4-24.6-9.4-33.9 0s-9.4 24.6 0 33.9l64 64c9.4 9.4 24.6 9.4 33.9 0L329 305z"/>
</symbol>

<!-- Часы -->
<symbol id="clock" viewBox="0 0 512 512">
<path d="M464 256A208 208 0 1 1 48 256a208 208 0 1 1 416 0zM0 256a256 256 0 1 0 512 0A256 256 0 1 0 0 256zM232 120l0 136c0 8 4 15.5 10.7 20l96 64c11 7.4 25.9 4.4 33.3-6.7s4.4-25.9-6.7-33.3L280 243.2 280 120c0-13.3-10.7-24-24-24s-24 10.7-24 24z"/>
</symbol>

<!-- Песочные часы -->
<symbol id="hourglass-half" viewBox="0 0 384 512">
<path d="M0 24C0 10.7 10.7 0 24 0L360 0c13.3 0 24 10.7 24 24s-10.7 24-24 24l-8 0 0 19c0 40.3-16 79-44.5 107.5L225.9 256l81.5 81.5C336 366 352 404.7 352 445l0 19 8 0c13.3 0 24 10.7 24 24s-10.7 24-24 24L24 512c-13.3 0-24-10.7-24-24s10.7-24 24-24l8 0 0-19c0-40.3 16-79 44.5-107.5L158.1 256 76.5 174.5C48 146 32 107.3 32 67l0-19-8 0C10.7 48 0 37.3 0 24zM110.5 371.5c-3.9 3.9-7.5 8.1-10.7 12.5l184.4 0c-3.2-4.4-6.8-8.6-10.7-12.5L192 289.9l-81.5 81.5zM284.2 128C297 110.4 304 89 304 67l0-19L80 48l0 19c0 22.1 7 43.4 19.8 61l184.4 0z"/>
</symbol>

<!-- Символ рубля -->
<symbol id="ruble" viewBox="0 0 384 512">
<path d="M96 32C78.3 32 64 46.3 64 64l0 192-32 0c-17.7 0-32 14.3-32 32s14.3 32 32 32l32 0 0 32-32 0c-17.7 0-32 14.3-32 32s14.3 32 32 32l32 0 0 32c0 17.7 14.3 32 32 32s32-14.3 32-32l0-32 160 0c17.7 0 32-14.3 32-32s-14.3-32-32-32l-160 0 0-32 112 0c79.5 0 144-64.5 144-144s-64.5-144-144-144L96 32zM240 256l-112 0 0-160 112 0c44.2 0 80 35.8 80 80s-35.8 80-80 80z"/>
</symbol>

<!-- Календарь, символизирует ежегодные мероприятия -->
<symbol id="calendar-days" viewBox="0 0 448 512">
<path d="M152 24c0-13.3-10.7-24-24-24s-24 10.7-24 24l0 40L64 64C28.7 64 0 92.7 0 128l0 16 0 48L0 448c0 35.3 28.7 64 64 64l320 0c35.3 0 64-28.7 64-64l0-256 0-48 0-16c0-35.3-28.7-64-64-64l-40 0 0-40c0-13.3-10.7-24-24-24s-24 10.7-24 24l0 40L152 64l0-40zM48 192l80 0 0 56-80 0 0-56zm0 104l80 0 0 64-80 0 0-64zm128 0l96 0 0 64-96 0 0-64zm144 0l80 0 0 64-80 0 0-64zm80-48l-80 0 0-56 80 0 0 56zm0 160l0 40c0 8.8-7.2 16-16 16l-64 0 0-56 80 0zm-128 0l0 56-96 0 0-56 96 0zm-144 0l0 56-64 0c-8.8 0-16-7.2-16-16l0-40 80 0zM272 248l-96 0 0-56 96 0 0 56z"/>
</symbol>

<!-- Ступени, символизируют выход на сцену и важные моменты -->
<symbol id="stairs" viewBox="0 0 576 512">
<path d="M384 64c0-17.7 14.3-32 32-32l128 0c17.7 0 32 14.3 32 32s-14.3 32-32 32l-96 0 0 96c0 17.7-14.3 32-32 32l-96 0 0 96c0 17.7-14.3 32-32 32l-96 0 0 96c0 17.7-14.3 32-32 32L32 480c-17.7 0-32-14.3-32-32s14.3-32 32-32l96 0 0-96c0-17.7 14.3-32 32-32l96 0 0-96c0-17.7 14.3-32 32-32l96 0 0-96z"/>
</symbol>

<!-- Улыбка, символизирует уверенность и снятие страха -->
<symbol id="face-smile" viewBox="0 0 512 512">
<path d="M256 512A256 256 0 1 0 256 0a256 256 0 1 0 0 512zM164.1 325.5C182 346.2 212.6 368 256 368s74-21.8 91.9-42.5c5.8-6.7 15.9-7.4 22.6-1.6s7.4 15.9 1.6 22.6C349.8 372.1 311.1 400 256 400s-93.8-27.9-116.1-53.5c-5.8-6.7-5.1-16.8 1.6-22.6s16.8-5.1 22.6 1.6zM144.4 208a32 32 0 1 1 64 0 32 32 0 1 1 -64 0zm192-32a32 32 0 1 1 0 64 32 32 0 1 1 0-64z"/>
</symbol>

<!-- Микрофон, символизирует публичные выступления -->
<symbol id="microphone" viewBox="0 0 384 512">
<path d="M192 0C139 0 96 43 96 96l0 160c0 53 43 96 96 96s96-43 96-96l0-160c0-53-43-96-96-96zM64 216c0-13.3-10.7-24-24-24s-24 10.7-24 24l0 40c0 89.1 66.2 162.7 152 174.4l0 33.6-48 0c-13.3 0-24 10.7-24 24s10.7 24 24 24l72 0 72 0c13.3 0 24-10.7 24-24s-10.7-24-24-24l-48 0 0-33.6c85.8-11.7 152-85.3 152-174.4l0-40c0-13.3-10.7-24-24-24s-24 10.7-24 24l0 40c0 70.7-57.3 128-128 128s-128-57.3-128-128l0-40z"/>
</symbol>

<!-- Человек, идущий -->
<symbol id="person-walking" viewBox="0 0 320 512">
<path d="M160 48a48 48 0 1 1 96 0 48 48 0 1 1 -96 0zM126.5 199.3c-1 .4-1.9 .8-2.9 1.2l-8 3.5c-16.4 7.3-29 21.2-34.7 38.2l-2.6 7.8c-5.6 16.8-23.7 25.8-40.5 20.2s-25.8-23.7-20.2-40.5l2.6-7.8c11.4-34.1 36.6-61.9 69.4-76.5l8-3.5c20.8-9.2 43.3-14 66.1-14c44.6 0 84.8 26.8 101.9 67.9L281 232.7l21.4 10.7c15.8 7.9 22.2 27.1 14.3 42.9s-27.1 22.2-42.9 14.3L247 287.3c-10.3-5.2-18.4-13.8-22.8-24.5l-9.6-23-19.3 65.5 49.5 54c5.4 5.9 9.2 13 11.2 20.8l23 92.1c4.3 17.1-6.1 34.5-23.3 38.8s-34.5-6.1-38.8-23.3l-22-88.1-70.7-77.1c-14.8-16.1-20.3-38.6-14.7-59.7l16.9-63.5zM68.7 398l25-62.4c2.1 3 4.5 5.8 7 8.6l40.7 44.4-14.5 36.2c-2.4 6-6 11.5-10.6 16.1L54.6 502.6c-12.5 12.5-32.8 12.5-45.3 0s-12.5-32.8 0-45.3L68.7 398z"/>
</symbol>

<!-- Сердце, символизирует общее физическое здоровье и заботу о теле -->
<symbol id="heart" viewBox="0 0 512 512">
<path d="M47.6 300.4L228.3 469.1c7.5 7 17.4 10.9 27.7 10.9s20.2-3.9 27.7-10.9L464.4 300.4c30.4-28.3 47.6-68 47.6-109.5v-5.8c0-69.9-50.5-129.5-119.4-141C347 36.5 300.6 51.4 268 84L256 96 244 84c-32.6-32.6-79-47.5-124.6-39.9C50.5 55.6 0 115.2 0 185.1v5.8c0 41.5 17.2 81.2 47.6 109.5z"/>
</symbol>

<symbol id="house" viewBox="0 0 576 512">
<path d="M575.8 255.5c0 18-15 32.1-32 32.1l-32 0 .7 160.2c0 2.7-.2 5.4-.5 8.1l0 16.2c0 22.1-17.9 40-40 40l-16 0c-1.1 0-2.2 0-3.3-.1c-1.4 .1-2.8 .1-4.2 .1L416 512l-24 0c-22.1 0-40-17.9-40-40l0-24 0-64c0-17.7-14.3-32-32-32l-64 0c-17.7 0-32 14.3-32 32l0 64 0 24c0 22.1-17.9 40-40 40l-24 0-31.9 0c-1.5 0-3-.1-4.5-.2c-1.2 .1-2.4 .2-3.6 .2l-16 0c-22.1 0-40-17.9-40-40l0-112c0-.9 0-1.9 .1-2.8l0-69.7-32 0c-18 0-32-14-32-32.1c0-9 3-17 10-24L266.4 8c7-7 15-8 22-8s15 2 21 7L564.8 231.5c8 7 12 15 11 24z"/>
</symbol>

<!-- Человек с щитом. Символизирует безопасность -->
<symbol id="user-shield" viewBox="0 0 640 512">
<path d="M224 256A128 128 0 1 0 224 0a128 128 0 1 0 0 256zm-45.7 48C79.8 304 0 383.8 0 482.3C0 498.7 13.3 512 29.7 512l388.6 0c1.8 0 3.5-.2 5.3-.5c-76.3-55.1-99.8-141-103.1-200.2c-16.1-4.8-33.1-7.3-50.7-7.3l-91.4 0zm308.8-78.3l-120 48C358 277.4 352 286.2 352 296c0 63.3 25.9 168.8 134.8 214.2c5.9 2.5 12.6 2.5 18.5 0C614.1 464.8 640 359.3 640 296c0-9.8-6-18.6-15.1-22.3l-120-48c-5.7-2.3-12.1-2.3-17.8 0zM591.4 312c-3.9 50.7-27.2 116.7-95.4 149.7l0-187.8L591.4 312z"/>
</symbol>

<symbol id="leaf" viewBox="0 0 512 512"><path d="M272 96c-78.6 0-145.1 51.5-167.7 122.5c33.6-17 71.5-26.5 111.7-26.5l88 0c8.8 0 16 7.2 16 16s-7.2 16-16 16l-16 0-72 0s0 0 0 0c-16.6 0-32.7 1.9-48.3 5.4c-25.9 5.9-49.9 16.4-71.4 30.7c0 0 0 0 0 0C38.3 298.8 0 364.9 0 440l0 16c0 13.3 10.7 24 24 24s24-10.7 24-24l0-16c0-48.7 20.7-92.5 53.8-123.2C121.6 392.3 190.3 448 272 448l1 0c132.1-.7 239-130.9 239-291.4c0-42.6-7.5-83.1-21.1-119.6c-2.6-6.9-12.7-6.6-16.2-.1C455.9 72.1 418.7 96 376 96L272 96z"/>
</symbol>

<symbol id="building" viewBox="0 0 384 512"><path d="M48 0C21.5 0 0 21.5 0 48L0 464c0 26.5 21.5 48 48 48l96 0 0-80c0-26.5 21.5-48 48-48s48 21.5 48 48l0 80 96 0c26.5 0 48-21.5 48-48l0-416c0-26.5-21.5-48-48-48L48 0zM64 240c0-8.8 7.2-16 16-16l32 0c8.8 0 16 7.2 16 16l0 32c0 8.8-7.2 16-16 16l-32 0c-8.8 0-16-7.2-16-16l0-32zm112-16l32 0c8.8 0 16 7.2 16 16l0 32c0 8.8-7.2 16-16 16l-32 0c-8.8 0-16-7.2-16-16l0-32c0-8.8 7.2-16 16-16zm80 16c0-8.8 7.2-16 16-16l32 0c8.8 0 16 7.2 16 16l0 32c0 8.8-7.2 16-16 16l-32 0c-8.8 0-16-7.2-16-16l0-32zM80 96l32 0c8.8 0 16 7.2 16 16l0 32c0 8.8-7.2 16-16 16l-32 0c-8.8 0-16-7.2-16-16l0-32c0-8.8 7.2-16 16-16zm80 16c0-8.8 7.2-16 16-16l32 0c8.8 0 16 7.2 16 16l0 32c0 8.8-7.2 16-16 16l-32 0c-8.8 0-16-7.2-16-16l0-32zM272 96l32 0c8.8 0 16 7.2 16 16l0 32c0 8.8-7.2 16-16 16l-32 0c-8.8 0-16-7.2-16-16l0-32c0-8.8 7.2-16 16-16z"/>
</symbol>

<!-- Мобильный бургер -->
<symbol id="bars" viewBox="0 0 448 512">
<path d="M0 96C0 78.3 14.3 64 32 64l384 0c17.7 0 32 14.3 32 32s-14.3 32-32 32L32 128C14.3 128 0 113.7 0 96zM0 256c0-17.7 14.3-32 32-32l384 0c17.7 0 32 14.3 32 32s-14.3 32-32 32L32 288c-17.7 0-32-14.3-32-32zM448 416c0 17.7-14.3 32-32 32L32 448c-17.7 0-32-14.3-32-32s14.3-32 32-32l384 0c17.7 0 32 14.3 32 32z"/>
</symbol>

<!-- Знак закрытия -->
<symbol id="xmark" viewBox="0 0 384 512">
<path d="M342.6 150.6c12.5-12.5 12.5-32.8 0-45.3s-32.8-12.5-45.3 0L192 210.7 86.6 105.4c-12.5-12.5-32.8-12.5-45.3 0s-12.5 32.8 0 45.3L146.7 256 41.4 361.4c-12.5 12.5-12.5 32.8 0 45.3s32.8 12.5 45.3 0L192 301.3 297.4 406.6c12.5 12.5 32.8 12.5 45.3 0s12.5-32.8 0-45.3L237.3 256 342.6 150.6z"/>
</symbol>

<!-- Календарь -->
<symbol id="calendar" viewBox="0 0 448 512">
<path d="M152 24c0-13.3-10.7-24-24-24s-24 10.7-24 24l0 40L64 64C28.7 64 0 92.7 0 128l0 16 0 48L0 448c0 35.3 28.7 64 64 64l320 0c35.3 0 64-28.7 64-64l0-256 0-48 0-16c0-35.3-28.7-64-64-64l-40 0 0-40c0-13.3-10.7-24-24-24s-24 10.7-24 24l0 40L152 64l0-40zM48 192l80 0 0 56-80 0 0-56zm0 104l80 0 0 64-80 0 0-64zm128 0l96 0 0 64-96 0 0-64zm144 0l80 0 0 64-80 0 0-64zm80-48l-80 0 0-56 80 0 0 56zm0 160l0 40c0 8.8-7.2 16-16 16l-64 0 0-56 80 0zm-128 0l0 56-96 0 0-56 96 0zm-144 0l0 56-64 0c-8.8 0-16-7.2-16-16l0-40 80 0zM272 248l-96 0 0-56 96 0 0 56z"/>
</symbol>

<!-- Пазл -->
<symbol id="puzzle" viewBox="0 0 512 512">
<path d="M192 104.8c0-9.2-5.8-17.3-13.2-22.8C167.2 73.3 160 61.3 160 48c0-26.5 28.7-48 64-48s64 21.5 64 48c0 13.3-7.2 25.3-18.8 34c-7.4 5.5-13.2 13.6-13.2 22.8c0 12.8 10.4 23.2 23.2 23.2l56.8 0c26.5 0 48 21.5 48 48l0 56.8c0 12.8 10.4 23.2 23.2 23.2c9.2 0 17.3-5.8 22.8-13.2c8.7-11.6 20.7-18.8 34-18.8c26.5 0 48 28.7 48 64s-21.5 64-48 64c-13.3 0-25.3-7.2-34-18.8c-5.5-7.4-13.6-13.2-22.8-13.2c-12.8 0-23.2 10.4-23.2 23.2L384 464c0 26.5-21.5 48-48 48l-56.8 0c-12.8 0-23.2-10.4-23.2-23.2c0-9.2 5.8-17.3 13.2-22.8c11.6-8.7 18.8-20.7 18.8-34c0-26.5-28.7-48-64-48s-64 21.5-64 48c0 13.3 7.2 25.3 18.8 34c7.4 5.5 13.2 13.6 13.2 22.8c0 12.8-10.4 23.2-23.2 23.2L48 512c-26.5 0-48-21.5-48-48L0 343.2C0 330.4 10.4 320 23.2 320c9.2 0 17.3 5.8 22.8 13.2C54.7 344.8 66.7 352 80 352c26.5 0 48-28.7 48-64s-21.5-64-48-64c-13.3 0-25.3 7.2-34 18.8C40.5 250.2 32.4 256 23.2 256C10.4 256 0 245.6 0 232.8L0 176c0-26.5 21.5-48 48-48l120.8 0c12.8 0 23.2-10.4 23.2-23.2z"/>
</symbol>

<!-- Часы -->
<symbol id="clock" viewBox="0 0 512 512">
<path d="M464 256A208 208 0 1 1 48 256a208 208 0 1 1 416 0zM0 256a256 256 0 1 0 512 0A256 256 0 1 0 0 256zM232 120l0 136c0 8 4 15.5 10.7 20l96 64c11 7.4 25.9 4.4 33.3-6.7s4.4-25.9-6.7-33.3L280 243.2 280 120c0-13.3-10.7-24-24-24s-24 10.7-24 24z"/>
</symbol>


<!-- Уголок вправо -->
<symbol id="angle" viewBox="0 0 320 512">
<path d="M278.6 233.4c12.5 12.5 12.5 32.8 0 45.3l-160 160c-12.5 12.5-32.8 12.5-45.3 0s-12.5-32.8 0-45.3L210.7 256 73.4 118.6c-12.5-12.5-12.5-32.8 0-45.3s32.8-12.5 45.3 0l160 160z"/>
</symbol>

<!-- Локация отметка -->
<symbol id="location-dot" viewBox="0 0 384 512">
<path d="M215.7 499.2C267 435 384 279.4 384 192C384 86 298 0 192 0S0 86 0 192c0 87.4 117 243 168.3 307.2c12.3 15.3 35.1 15.3 47.4 0zM192 128a64 64 0 1 1 0 128 64 64 0 1 1 0-128z"/>
</symbol>

<!--Telephone number-->
<symbol id="phone-number" viewBox="0 0 512 512">
<path d="M164.9 24.6c-7.7-18.6-28-28.5-47.4-23.2l-88 24C12.1 30.2 0 46 0 64C0 311.4 200.6 512 448 512c18 0 33.8-12.1 38.6-29.5l24-88c5.3-19.4-4.6-39.7-23.2-47.4l-96-40c-16.3-6.8-35.2-2.1-46.3 11.6L304.7 368C234.3 334.7 177.3 277.7 144 207.3L193.3 167c13.7-11.2 18.4-30 11.6-46.3l-40-96z"/>
</symbol>

<!-- Человек с щитом. Символизирует безопасность -->
<symbol id="user-shield" viewBox="0 0 640 512">
<path d="M224 256A128 128 0 1 0 224 0a128 128 0 1 0 0 256zm-45.7 48C79.8 304 0 383.8 0 482.3C0 498.7 13.3 512 29.7 512l388.6 0c1.8 0 3.5-.2 5.3-.5c-76.3-55.1-99.8-141-103.1-200.2c-16.1-4.8-33.1-7.3-50.7-7.3l-91.4 0zm308.8-78.3l-120 48C358 277.4 352 286.2 352 296c0 63.3 25.9 168.8 134.8 214.2c5.9 2.5 12.6 2.5 18.5 0C614.1 464.8 640 359.3 640 296c0-9.8-6-18.6-15.1-22.3l-120-48c-5.7-2.3-12.1-2.3-17.8 0zM591.4 312c-3.9 50.7-27.2 116.7-95.4 149.7l0-187.8L591.4 312z"/>
</symbol>

<!-- Символ рубля -->
<symbol id="ruble" viewBox="0 0 384 512">
<path d="M96 32C78.3 32 64 46.3 64 64l0 192-32 0c-17.7 0-32 14.3-32 32s14.3 32 32 32l32 0 0 32-32 0c-17.7 0-32 14.3-32 32s14.3 32 32 32l32 0 0 32c0 17.7 14.3 32 32 32s32-14.3 32-32l0-32 160 0c17.7 0 32-14.3 32-32s-14.3-32-32-32l-160 0 0-32 112 0c79.5 0 144-64.5 144-144s-64.5-144-144-144L96 32zM240 256l-112 0 0-160 112 0c44.2 0 80 35.8 80 80s-35.8 80-80 80z"/>
</symbol>

<!-- Улыбка, символизирует уверенность и снятие страха -->
<symbol id="face-smile" viewBox="0 0 512 512">
<path d="M256 512A256 256 0 1 0 256 0a256 256 0 1 0 0 512zM164.1 325.5C182 346.2 212.6 368 256 368s74-21.8 91.9-42.5c5.8-6.7 15.9-7.4 22.6-1.6s7.4 15.9 1.6 22.6C349.8 372.1 311.1 400 256 400s-93.8-27.9-116.1-53.5c-5.8-6.7-5.1-16.8 1.6-22.6s16.8-5.1 22.6 1.6zM144.4 208a32 32 0 1 1 64 0 32 32 0 1 1 -64 0zm192-32a32 32 0 1 1 0 64 32 32 0 1 1 0-64z"/>
</symbol>

<symbol id="social-vk" viewBox="0 0 448 512">
<path d="M31.5 63.5C0 95 0 145.7 0 247V265C0 366.3 0 417 31.5 448.5C63 480 113.7 480 215 480H233C334.3 480 385 480 416.5 448.5C448 417 448 366.3 448 265V247C448 145.7 448 95 416.5 63.5C385 32 334.3 32 233 32H215C113.7 32 63 32 31.5 63.5zM75.6 168.3H126.7C128.4 253.8 166.1 290 196 297.4V168.3H244.2V242C273.7 238.8 304.6 205.2 315.1 168.3H363.3C359.3 187.4 351.5 205.6 340.2 221.6C328.9 237.6 314.5 251.1 297.7 261.2C316.4 270.5 332.9 283.6 346.1 299.8C359.4 315.9 369 334.6 374.5 354.7H321.4C316.6 337.3 306.6 321.6 292.9 309.8C279.1 297.9 262.2 290.4 244.2 288.1V354.7H238.4C136.3 354.7 78 284.7 75.6 168.3z"/>
</symbol>

<!--Telegram-->
<symbol id="social-telegram" viewBox="0 0 512 512">
<path d="M248 8C111 8 0 119 0 256S111 504 248 504 496 393 496 256 385 8 248 8zM363 176.7c-3.7 39.2-19.9 134.4-28.1 178.3-3.5 18.6-10.3 24.8-16.9 25.4-14.4 1.3-25.3-9.5-39.3-18.7-21.8-14.3-34.2-23.2-55.3-37.2-24.5-16.1-8.6-25 5.3-39.5 3.7-3.8 67.1-61.5 68.3-66.7 .2-.7 .3-3.1-1.2-4.4s-3.6-.8-5.1-.5q-3.3 .7-104.6 69.1-14.8 10.2-26.9 9.9c-8.9-.2-25.9-5-38.6-9.1-15.5-5-27.9-7.7-26.8-16.3q.8-6.7 18.5-13.7 108.4-47.2 144.6-62.3c68.9-28.6 83.2-33.6 92.5-33.8 2.1 0 6.6 .5 9.6 2.9a10.5 10.5 0 0 1 3.5 6.7A43.8 43.8 0 0 1 363 176.7z"/>
</symbol>

<!--Instagram-->
<symbol id="social-instagram" viewBox="0 0 512 512">
<path d="M194.4 211.7a53.3 53.3 0 1 0 59.3 88.7 53.3 53.3 0 1 0 -59.3-88.7zm142.3-68.4c-5.2-5.2-11.5-9.3-18.4-12c-18.1-7.1-57.6-6.8-83.1-6.5c-4.1 0-7.9 .1-11.2 .1c-3.3 0-7.2 0-11.4-.1c-25.5-.3-64.8-.7-82.9 6.5c-6.9 2.7-13.1 6.8-18.4 12s-9.3 11.5-12 18.4c-7.1 18.1-6.7 57.7-6.5 83.2c0 4.1 .1 7.9 .1 11.1s0 7-.1 11.1c-.2 25.5-.6 65.1 6.5 83.2c2.7 6.9 6.8 13.1 12 18.4s11.5 9.3 18.4 12c18.1 7.1 57.6 6.8 83.1 6.5c4.1 0 7.9-.1 11.2-.1c3.3 0 7.2 0 11.4 .1c25.5 .3 64.8 .7 82.9-6.5c6.9-2.7 13.1-6.8 18.4-12s9.3-11.5 12-18.4c7.2-18 6.8-57.4 6.5-83c0-4.2-.1-8.1-.1-11.4s0-7.1 .1-11.4c.3-25.5 .7-64.9-6.5-83l0 0c-2.7-6.9-6.8-13.1-12-18.4zm-67.1 44.5A82 82 0 1 1 178.4 324.2a82 82 0 1 1 91.1-136.4zm29.2-1.3c-3.1-2.1-5.6-5.1-7.1-8.6s-1.8-7.3-1.1-11.1s2.6-7.1 5.2-9.8s6.1-4.5 9.8-5.2s7.6-.4 11.1 1.1s6.5 3.9 8.6 7s3.2 6.8 3.2 10.6c0 2.5-.5 5-1.4 7.3s-2.4 4.4-4.1 6.2s-3.9 3.2-6.2 4.2s-4.8 1.5-7.3 1.5l0 0c-3.8 0-7.5-1.1-10.6-3.2zM448 96c0-35.3-28.7-64-64-64H64C28.7 32 0 60.7 0 96V416c0 35.3 28.7 64 64 64H384c35.3 0 64-28.7 64-64V96zM357 389c-18.7 18.7-41.4 24.6-67 25.9c-26.4 1.5-105.6 1.5-132 0c-25.6-1.3-48.3-7.2-67-25.9s-24.6-41.4-25.8-67c-1.5-26.4-1.5-105.6 0-132c1.3-25.6 7.1-48.3 25.8-67s41.5-24.6 67-25.8c26.4-1.5 105.6-1.5 132 0c25.6 1.3 48.3 7.1 67 25.8s24.6 41.4 25.8 67c1.5 26.3 1.5 105.4 0 131.9c-1.3 25.6-7.1 48.3-25.8 67z"/>
</symbol>

<!--Telephone number-->
<symbol id="phone-number" viewBox="0 0 512 512">
<path d="M164.9 24.6c-7.7-18.6-28-28.5-47.4-23.2l-88 24C12.1 30.2 0 46 0 64C0 311.4 200.6 512 448 512c18 0 33.8-12.1 38.6-29.5l24-88c5.3-19.4-4.6-39.7-23.2-47.4l-96-40c-16.3-6.8-35.2-2.1-46.3 11.6L304.7 368C234.3 334.7 177.3 277.7 144 207.3L193.3 167c13.7-11.2 18.4-30 11.6-46.3l-40-96z"/>
</symbol>

<!-- WhatsApp -->
<symbol id="social-whatsApp" viewBox="0 0 448 512">
<path d="M92.1 254.6c0 24.9 7 49.2 20.2 70.1l3.1 5-13.3 48.6L152 365.2l4.8 2.9c20.2 12 43.4 18.4 67.1 18.4h.1c72.6 0 133.3-59.1 133.3-131.8c0-35.2-15.2-68.3-40.1-93.2c-25-25-58-38.7-93.2-38.7c-72.7 0-131.8 59.1-131.9 131.8zM274.8 330c-12.6 1.9-22.4 .9-47.5-9.9c-36.8-15.9-61.8-51.5-66.9-58.7c-.4-.6-.7-.9-.8-1.1c-2-2.6-16.2-21.5-16.2-41c0-18.4 9-27.9 13.2-32.3c.3-.3 .5-.5 .7-.8c3.6-4 7.9-5 10.6-5c2.6 0 5.3 0 7.6 .1c.3 0 .5 0 .8 0c2.3 0 5.2 0 8.1 6.8c1.2 2.9 3 7.3 4.9 11.8c3.3 8 6.7 16.3 7.3 17.6c1 2 1.7 4.3 .3 6.9c-3.4 6.8-6.9 10.4-9.3 13c-3.1 3.2-4.5 4.7-2.3 8.6c15.3 26.3 30.6 35.4 53.9 47.1c4 2 6.3 1.7 8.6-1c2.3-2.6 9.9-11.6 12.5-15.5c2.6-4 5.3-3.3 8.9-2s23.1 10.9 27.1 12.9c.8 .4 1.5 .7 2.1 1c2.8 1.4 4.7 2.3 5.5 3.6c.9 1.9 .9 9.9-2.4 19.1c-3.3 9.3-19.1 17.7-26.7 18.8zM448 96c0-35.3-28.7-64-64-64H64C28.7 32 0 60.7 0 96V416c0 35.3 28.7 64 64 64H384c35.3 0 64-28.7 64-64V96zM148.1 393.9L64 416l22.5-82.2c-13.9-24-21.2-51.3-21.2-79.3C65.4 167.1 136.5 96 223.9 96c42.4 0 82.2 16.5 112.2 46.5c29.9 30 47.9 69.8 47.9 112.2c0 87.4-72.7 158.5-160.1 158.5c-26.6 0-52.7-6.7-75.8-19.3z"/>
</symbol>

<!-- Viber -->
<symbol id="social-viber" viewBox="0 0 512 512">
<path d="M444 49.9C431.3 38.2 379.9 .9 265.3 .4c0 0-135.1-8.1-200.9 52.3C27.8 89.3 14.9 143 13.5 209.5c-1.4 66.5-3.1 191.1 117 224.9h.1l-.1 51.6s-.8 20.9 13 25.1c16.6 5.2 26.4-10.7 42.3-27.8 8.7-9.4 20.7-23.2 29.8-33.7 82.2 6.9 145.3-8.9 152.5-11.2 16.6-5.4 110.5-17.4 125.7-142 15.8-128.6-7.6-209.8-49.8-246.5zM457.9 287c-12.9 104-89 110.6-103 115.1-6 1.9-61.5 15.7-131.2 11.2 0 0-52 62.7-68.2 79-5.3 5.3-11.1 4.8-11-5.7 0-6.9 .4-85.7 .4-85.7-.1 0-.1 0 0 0-101.8-28.2-95.8-134.3-94.7-189.8 1.1-55.5 11.6-101 42.6-131.6 55.7-50.5 170.4-43 170.4-43 96.9 .4 143.3 29.6 154.1 39.4 35.7 30.6 53.9 103.8 40.6 211.1zm-139-80.8c.4 8.6-12.5 9.2-12.9 .6-1.1-22-11.4-32.7-32.6-33.9-8.6-.5-7.8-13.4 .7-12.9 27.9 1.5 43.4 17.5 44.8 46.2zm20.3 11.3c1-42.4-25.5-75.6-75.8-79.3-8.5-.6-7.6-13.5 .9-12.9 58 4.2 88.9 44.1 87.8 92.5-.1 8.6-13.1 8.2-12.9-.3zm47 13.4c.1 8.6-12.9 8.7-12.9 .1-.6-81.5-54.9-125.9-120.8-126.4-8.5-.1-8.5-12.9 0-12.9 73.7 .5 133 51.4 133.7 139.2zM374.9 329v.2c-10.8 19-31 40-51.8 33.3l-.2-.3c-21.1-5.9-70.8-31.5-102.2-56.5-16.2-12.8-31-27.9-42.4-42.4-10.3-12.9-20.7-28.2-30.8-46.6-21.3-38.5-26-55.7-26-55.7-6.7-20.8 14.2-41 33.3-51.8h.2c9.2-4.8 18-3.2 23.9 3.9 0 0 12.4 14.8 17.7 22.1 5 6.8 11.7 17.7 15.2 23.8 6.1 10.9 2.3 22-3.7 26.6l-12 9.6c-6.1 4.9-5.3 14-5.3 14s17.8 67.3 84.3 84.3c0 0 9.1 .8 14-5.3l9.6-12c4.6-6 15.7-9.8 26.6-3.7 14.7 8.3 33.4 21.2 45.8 32.9 7 5.7 8.6 14.4 3.8 23.6z"/>
</symbol>
  
<!-- message -->
<symbol id="message" viewBox="0 0 512 512">
<path d="M160 368c26.5 0 48 21.5 48 48l0 16 72.5-54.4c8.3-6.2 18.4-9.6 28.8-9.6L448 368c8.8 0 16-7.2 16-16l0-288c0-8.8-7.2-16-16-16L64 48c-8.8 0-16 7.2-16 16l0 288c0 8.8 7.2 16 16 16l96 0zm48 124l-.2 .2-5.1 3.8-17.1 12.8c-4.8 3.6-11.3 4.2-16.8 1.5s-8.8-8.2-8.8-14.3l0-21.3 0-6.4 0-.3 0-4 0-48-48 0-48 0c-35.3 0-64-28.7-64-64L0 64C0 28.7 28.7 0 64 0L448 0c35.3 0 64 28.7 64 64l0 288c0 35.3-28.7 64-64 64l-138.7 0L208 492z" />
</symbol>

<!-- medical-file -->
<symbol id="file-medical" viewBox="0 0 384 512">
    <path d="M64 0C28.7 0 0 28.7 0 64L0 448c0 35.3 28.7 64 64 64l256 0c35.3 0 64-28.7 64-64l0-288-128 0c-17.7 0-32-14.3-32-32L224 0 64 0zM256 0l0 128 128 0L256 0zM160 240c0-8.8 7.2-16 16-16l32 0c8.8 0 16 7.2 16 16l0 48 48 0c8.8 0 16 7.2 16 16l0 32c0 8.8-7.2 16-16 16l-48 0 0 48c0 8.8-7.2 16-16 16l-32 0c-8.8 0-16-7.2-16-16l0-48-48 0c-8.8 0-16-7.2-16-16l0-32c0-8.8 7.2-16 16-16l48 0 0-48z" />
</symbol>
  <!-- Спискок дел -->
<symbol id="list-check" viewBox="0 0 512 512"><path d="M152.1 38.2c9.9 8.9 10.7 24 1.8 33.9l-72 80c-4.4 4.9-10.6 7.8-17.2 7.9s-12.9-2.4-17.6-7L7 113C-2.3 103.6-2.3 88.4 7 79s24.6-9.4 33.9 0l22.1 22.1 55.1-61.2c8.9-9.9 24-10.7 33.9-1.8zm0 160c9.9 8.9 10.7 24 1.8 33.9l-72 80c-4.4 4.9-10.6 7.8-17.2 7.9s-12.9-2.4-17.6-7L7 273c-9.4-9.4-9.4-24.6 0-33.9s24.6-9.4 33.9 0l22.1 22.1 55.1-61.2c8.9-9.9 24-10.7 33.9-1.8zM224 96c0-17.7 14.3-32 32-32l224 0c17.7 0 32 14.3 32 32s-14.3 32-32 32l-224 0c-17.7 0-32-14.3-32-32zm0 160c0-17.7 14.3-32 32-32l224 0c17.7 0 32 14.3 32 32s-14.3 32-32 32l-224 0c-17.7 0-32-14.3-32-32zM160 416c0-17.7 14.3-32 32-32l288 0c17.7 0 32 14.3 32 32s-14.3 32-32 32l-288 0c-17.7 0-32-14.3-32-32zM48 368a48 48 0 1 1 0 96 48 48 0 1 1 0-96z"/>
</symbol>
</svg>
